<?xml version="1.0" encoding="UTF-8"?>
<svg id="Layer_2" data-name="Layer 2" xmlns="http://www.w3.org/2000/svg" xmlns:xlink="http://www.w3.org/1999/xlink" viewBox="0 0 2774.78 1079.41">
  <defs>
    <style>
      .cls-1 {
        stroke-width: 18.37px;
      }

      .cls-1, .cls-2, .cls-3, .cls-4, .cls-5, .cls-6, .cls-7, .cls-8, .cls-9, .cls-10 {
        stroke-miterlimit: 10;
      }

      .cls-1, .cls-6, .cls-9 {
        fill: #2176ae;
        stroke: #064289;
      }

      .cls-11 {
        letter-spacing: 0em;
      }

      .cls-2, .cls-3 {
        stroke-width: 18px;
      }

      .cls-2, .cls-4, .cls-12, .cls-7, .cls-8 {
        stroke: #1a1a1a;
      }

      .cls-2, .cls-13 {
        fill: #ff0;
      }

      .cls-14 {
        fill: #fff;
      }

      .cls-14, .cls-15 {
        font-family: Barlow-SemiBold, Barlow;
        font-weight: 600;
      }

      .cls-3 {
        stroke: #c74100;
      }

      .cls-3, .cls-16 {
        fill: #d35217;
      }

      .cls-17, .cls-5, .cls-10 {
        fill: none;
      }

      .cls-18 {
        letter-spacing: 0em;
      }

      .cls-19 {
        letter-spacing: -.01em;
      }

      .cls-4 {
        fill: #666;
      }

      .cls-4, .cls-5, .cls-6, .cls-12, .cls-7, .cls-10 {
        stroke-linecap: round;
      }

      .cls-4, .cls-12 {
        stroke-width: 24.33px;
      }

      .cls-5 {
        stroke: #666;
      }

      .cls-5, .cls-7, .cls-10 {
        stroke-width: 16.22px;
      }

      .cls-6 {
        stroke-width: 27.38px;
      }

      .cls-20, .cls-15 {
        fill: #1a1a1a;
      }

      .cls-12 {
        stroke-linejoin: round;
      }

      .cls-12, .cls-7, .cls-8 {
        fill: #4d4d4d;
      }

      .cls-15 {
        font-size: 173.41px;
      }

      .cls-21 {
        letter-spacing: 0em;
      }

      .cls-22 {
        font-size: 84.76px;
      }

      .cls-8 {
        stroke-width: 5px;
      }

      .cls-9 {
        stroke-width: 16.43px;
      }

      .cls-23 {
        clip-path: url(#clippath);
      }

      .cls-10 {
        stroke: #333;
      }

      .cls-24 {
        font-size: 192.63px;
      }
    </style>
    <clipPath id="clippath">
      <rect class="cls-17" x="762.41" y="112.26" width="1252.03" height="483.23" rx="20" ry="20" transform="translate(-21.3 97.71) rotate(-4)"/>
    </clipPath>
  </defs>
  <g id="Layer_2-2" data-name="Layer 2">
    <g>
      <rect class="cls-3" x="741" y="92.08" width="1294.84" height="523.59" rx="39.15" ry="39.15" transform="translate(-21.3 97.71) rotate(-4)"/>
      <g class="cls-23">
        <g>
          <rect class="cls-13" x="761.99" y="112.29" width="1252.03" height="483.23" rx="20" ry="20" transform="translate(-21.31 97.68) rotate(-4)"/>
          <g>
            <polygon class="cls-20" points="1873.44 908.1 1853.27 894.48 2916.92 -63.99 2937.09 -50.38 1873.44 908.1"/>
            <polygon class="cls-20" points="1793.44 908.1 1773.27 894.48 2836.92 -63.99 2857.09 -50.38 1793.44 908.1"/>
            <polygon class="cls-20" points="1713.44 908.1 1693.27 894.48 2756.92 -63.99 2777.09 -50.38 1713.44 908.1"/>
            <polygon class="cls-20" points="1633.44 908.1 1613.27 894.48 2676.92 -63.99 2697.09 -50.38 1633.44 908.1"/>
            <polygon class="cls-20" points="1553.44 908.1 1533.27 894.48 2596.92 -63.99 2617.09 -50.38 1553.44 908.1"/>
            <polygon class="cls-20" points="1473.44 908.1 1453.27 894.48 2516.92 -63.99 2537.09 -50.38 1473.44 908.1"/>
            <polygon class="cls-20" points="1393.44 908.1 1373.27 894.48 2436.92 -63.99 2457.09 -50.38 1393.44 908.1"/>
            <polygon class="cls-20" points="1313.44 908.1 1293.27 894.48 2356.92 -63.99 2377.09 -50.38 1313.44 908.1"/>
            <polygon class="cls-20" points="1233.44 908.1 1213.27 894.48 2276.92 -63.99 2297.09 -50.38 1233.44 908.1"/>
            <polygon class="cls-20" points="1153.44 908.1 1133.27 894.48 2196.92 -63.99 2217.09 -50.38 1153.44 908.1"/>
            <polygon class="cls-20" points="1073.44 908.1 1053.27 894.48 2116.92 -63.99 2137.09 -50.38 1073.44 908.1"/>
            <polygon class="cls-20" points="993.44 908.1 973.27 894.48 2036.92 -63.99 2057.09 -50.38 993.44 908.1"/>
            <polygon class="cls-20" points="913.44 908.1 893.27 894.48 1956.92 -63.99 1977.09 -50.38 913.44 908.1"/>
            <polygon class="cls-20" points="833.44 908.1 813.27 894.48 1876.92 -63.99 1897.09 -50.38 833.44 908.1"/>
            <polygon class="cls-20" points="753.44 908.1 733.27 894.48 1796.92 -63.99 1817.09 -50.38 753.44 908.1"/>
            <polygon class="cls-20" points="673.44 908.1 653.27 894.48 1716.92 -63.99 1737.09 -50.38 673.44 908.1"/>
            <polygon class="cls-20" points="593.44 908.1 573.27 894.48 1636.92 -63.99 1657.09 -50.38 593.44 908.1"/>
            <polygon class="cls-20" points="513.44 908.1 493.27 894.48 1556.92 -63.99 1577.09 -50.38 513.44 908.1"/>
            <polygon class="cls-20" points="433.44 908.1 413.27 894.48 1476.92 -63.99 1497.09 -50.38 433.44 908.1"/>
            <polygon class="cls-20" points="353.44 908.1 333.27 894.48 1396.92 -63.99 1417.09 -50.38 353.44 908.1"/>
            <polygon class="cls-20" points="273.44 908.1 253.27 894.48 1316.92 -63.99 1337.09 -50.38 273.44 908.1"/>
            <polygon class="cls-20" points="193.44 908.1 173.27 894.48 1236.92 -63.99 1257.09 -50.38 193.44 908.1"/>
            <polygon class="cls-20" points="113.44 908.1 93.27 894.48 1156.92 -63.99 1177.09 -50.38 113.44 908.1"/>
            <polygon class="cls-20" points="33.44 908.1 13.27 894.48 1076.92 -63.99 1097.09 -50.38 33.44 908.1"/>
            <polygon class="cls-20" points="-46.56 908.1 -66.73 894.48 996.92 -63.99 1017.09 -50.38 -46.56 908.1"/>
            <polygon class="cls-20" points="-126.56 908.1 -146.73 894.48 916.92 -63.99 937.09 -50.38 -126.56 908.1"/>
          </g>
        </g>
      </g>
      <rect class="cls-16" x="789.58" y="136.67" width="1197.68" height="434.41" rx="9.08" ry="9.08" transform="translate(-21.3 97.71) rotate(-4)"/>
      <path class="cls-2" d="M1016.02,259.58l-114.35,234.45c-4.78,9.81,2.84,21.12,13.73,20.36l260.22-18.2c10.89-.76,16.87-13.02,10.76-22.07l-145.87-216.26c-6.1-9.05-19.71-8.1-24.49,1.71Z"/>
      <text class="cls-15" transform="translate(1013.75 470.26) rotate(-4)"><tspan x="0" y="0">!</tspan></text>
      <text class="cls-14" transform="translate(1286.62 382.93) rotate(-4)"><tspan class="cls-24"><tspan x="0" y="0">U</tspan><tspan class="cls-21" x="122.51" y="0">N</tspan><tspan x="249.65" y="0">DER</tspan></tspan><tspan class="cls-22"><tspan x="2.66" y="101.71">CON</tspan><tspan class="cls-19" x="163.53" y="101.71">S</tspan><tspan x="212.52" y="101.71">TR</tspan><tspan class="cls-18" x="313.55" y="101.71">U</tspan><tspan class="cls-11" x="366.69" y="101.71">C</tspan><tspan x="417.55" y="101.71">TION</tspan></tspan></text>
      <circle class="cls-8" cx="804.85" cy="203.76" r="8.75"/>
      <circle class="cls-8" cx="1940.85" cy="124.32" r="8.75"/>
      <circle class="cls-8" cx="831.5" cy="584.83" r="8.75"/>
      <circle class="cls-8" cx="1967.5" cy="505.39" r="8.75"/>
    </g>
    <g>
      <rect class="cls-9" x="122.64" y="350.53" width="126.21" height="370.33" transform="translate(-254.05 177.86) rotate(-31.74)"/>
      <path class="cls-9" d="M282.05,604.26h0c60.56,0,109.73,49.17,109.73,109.73v93.02h-219.45v-93.02c0-60.56,49.17-109.73,109.73-109.73Z"/>
      <circle class="cls-9" cx="281.83" cy="691.01" r="33.86"/>
      <rect class="cls-1" x="368.7" y="83.69" width="85.15" height="237.06" transform="translate(16.44 434.91) rotate(-56.7)"/>
      <rect class="cls-9" x="163.93" y="40.41" width="108.77" height="370.33" rx="54.39" ry="54.39" transform="translate(207.03 539.29) rotate(-133.88)"/>
      <circle class="cls-9" cx="97.07" cy="361.36" r="88.83"/>
      <circle class="cls-9" cx="94.91" cy="359.76" r="33.86"/>
      <circle class="cls-9" cx="311.22" cy="135.76" r="22.29"/>
      <g>
        <line class="cls-6" x1="534.23" y1="250.64" x2="575.75" y2="227.56"/>
        <line class="cls-6" x1="576.25" y1="227.62" x2="645.64" y2="247.42"/>
        <line class="cls-6" x1="645.38" y1="248.33" x2="669.92" y2="284.76"/>
      </g>
      <g>
        <line class="cls-6" x1="605.2" y1="397.89" x2="557.79" y2="394.83"/>
        <line class="cls-6" x1="557.4" y1="394.51" x2="509.76" y2="340.32"/>
        <line class="cls-6" x1="510.47" y1="339.69" x2="509.55" y2="295.78"/>
      </g>
      <circle class="cls-9" cx="509.55" cy="266.78" r="56.26"/>
      <circle class="cls-9" cx="509.55" cy="266.78" r="22.29"/>
    </g>
    <g>
      <rect class="cls-9" x="2520.69" y="344.88" width="136.69" height="370.33" transform="translate(4511.93 2342.92) rotate(-148.26)"/>
      <path class="cls-9" d="M2383.01,598.61h219.45v93.02c0,60.56-49.17,109.73-109.73,109.73h0c-60.56,0-109.73-49.17-109.73-109.73v-93.02h0Z" transform="translate(4985.47 1399.96) rotate(180)"/>
      <circle class="cls-9" cx="2492.95" cy="685.35" r="33.86"/>
      <rect class="cls-1" x="2301.19" y="2.88" width="85.15" height="237.06" transform="translate(2041.27 2448.75) rotate(-85.56)"/>
      <rect class="cls-9" x="2502.08" y="34.76" width="108.77" height="370.33" rx="54.39" ry="54.39" transform="translate(626.03 1910.28) rotate(-46.12)"/>
      <circle class="cls-9" cx="2677.72" cy="355.71" r="88.83"/>
      <circle class="cls-9" cx="2679.88" cy="354.11" r="33.86"/>
      <circle class="cls-9" cx="2463.57" cy="130.11" r="22.29"/>
      <g>
        <line class="cls-6" x1="2216.9" y1="84.44" x2="2198.19" y2="40.77"/>
        <line class="cls-6" x1="2197.76" y1="40.51" x2="2130.78" y2="13.69"/>
        <line class="cls-6" x1="2130.42" y1="14.57" x2="2088.72" y2="28.36"/>
      </g>
      <g>
        <line class="cls-6" x1="2070.64" y1="157.43" x2="2110.01" y2="184.04"/>
        <line class="cls-6" x1="2110.51" y1="184.02" x2="2181.35" y2="170.33"/>
        <line class="cls-6" x1="2181.17" y1="169.4" x2="2208.79" y2="135.24"/>
      </g>
      <circle class="cls-9" cx="2226.54" cy="112.31" r="56.26"/>
      <circle class="cls-9" cx="2226.54" cy="112.31" r="22.29"/>
    </g>
    <g>
      <rect class="cls-12" x="203.7" y="797.13" width="2389.89" height="270.11" rx=".44" ry=".44" transform="translate(2797.29 1864.38) rotate(180)"/>
      <line class="cls-5" x1="2343.42" y1="832.6" x2="2191.77" y2="832.6"/>
      <line class="cls-5" x1="2078.03" y1="832.6" x2="1974.91" y2="832.6"/>
      <line class="cls-5" x1="1811.61" y1="832.6" x2="1670.1" y2="832.6"/>
      <line class="cls-5" x1="1532.1" y1="832.6" x2="1476.53" y2="832.6"/>
      <line class="cls-5" x1="1168.63" y1="832.6" x2="1039.24" y2="832.6"/>
      <line class="cls-5" x1="892.14" y1="832.6" x2="696.51" y2="832.6"/>
      <line class="cls-5" x1="541.83" y1="832.6" x2="453.87" y2="832.6"/>
      <line class="cls-10" x1="2382.36" y1="1034.29" x2="2230.71" y2="1034.29"/>
      <line class="cls-10" x1="2116.97" y1="1034.29" x2="2013.85" y2="1034.29"/>
      <line class="cls-10" x1="1850.55" y1="1034.29" x2="1709.04" y2="1034.29"/>
      <line class="cls-10" x1="1571.04" y1="1034.29" x2="1515.46" y2="1034.29"/>
      <line class="cls-10" x1="1207.57" y1="1034.29" x2="1078.18" y2="1034.29"/>
      <line class="cls-10" x1="931.08" y1="1034.29" x2="735.45" y2="1034.29"/>
      <line class="cls-10" x1="580.77" y1="1034.29" x2="492.81" y2="1034.29"/>
      <circle class="cls-4" cx="2593.59" cy="932.19" r="135.06"/>
      <circle class="cls-4" cx="203.7" cy="932.19" r="135.06"/>
      <circle class="cls-4" cx="1398.65" cy="932.19" r="135.06"/>
      <circle class="cls-7" cx="2593.59" cy="932.19" r="65.4"/>
      <circle class="cls-7" cx="1398.65" cy="932.19" r="65.4"/>
      <circle class="cls-7" cx="203.7" cy="932.19" r="65.4"/>
    </g>
  </g>
</svg>