<?xml version="1.0" encoding="UTF-8"?>
<svg id="Layer_2" data-name="Layer 2" xmlns="http://www.w3.org/2000/svg" viewBox="0 0 129.69 138.48">
  <defs>
    <style>
      .cls-1 {
        fill: #ff5e14;
      }
    </style>
  </defs>
  <g id="Layer_1-2" data-name="Layer 1">
    <path class="cls-1" d="M66.11,0c16.21,0,30.86,6.27,43.95,18.8,13.09,12.53,19.63,29.12,19.63,49.76s-6.44,37.29-19.34,50.34c-12.89,13.05-28.16,19.58-45.8,19.58-19.6,0-35.25-6.87-46.97-20.61C5.86,104.13,0,87.76,0,68.75,0,48.18,6.59,31.58,19.78,18.95,32.96,6.32,48.4,0,66.11,0Zm-1.86,7.13c-12.63,0-22.77,5.22-30.42,15.67-7.65,10.45-11.47,25.63-11.47,45.56,0,18.62,3.58,33.81,10.74,45.56,7.16,11.75,17.58,17.63,31.25,17.63s23.76-5.16,31.45-15.48c7.68-10.32,11.52-25.31,11.52-44.97s-3.6-35.56-10.79-46.92c-7.19-11.36-17.95-17.04-32.28-17.04Zm-22.95,38.48h3.71c0,5.6,1.14,9.6,3.42,12.01,2.28,2.41,6.48,3.61,12.6,3.61h7.91c5.79,0,9.86-1.19,12.21-3.56,2.34-2.38,3.52-6.4,3.52-12.06h3.71v47.17h-3.71c0-5.53-1.14-9.5-3.42-11.91-2.28-2.41-6.45-3.61-12.5-3.61h-8.11c-5.8,0-9.85,1.21-12.16,3.61-2.31,2.41-3.47,6.38-3.47,11.91h-3.71V45.61Z"/>
  </g>
</svg>